# xmcd
#
# Track frame offsets:
#	150
#	12631
#	32089
#	57394
#	80700
#	91094
#	107550
#	121360
#	125692
#	142720
#	160972
#	171390
#	184909
#	209953
# Disc length: 2999 seconds
# Revision: 3
# Processed by: cddbd v1.5.1PL2 Copyright (c) Steve Scherf et al.
#
# Submitted via: libkcddb 0.31
#
DISCID=cb0bb50e
DTITLE=Eric Clapton and the Yardbirds - At Their Best CD1
DYEAR=2000
DGENRE=Blues
TTITLE0=Good Morning Little Schoolgirl
TTITLE1=New York City Blues
TTITLE2=My Girl Sloopy
TTITLE3=23 Hours Too Long
TTITLE4=A Certain Girl
TTITLE5=I Ain't Done Wrong
TTITLE6=Jeff's Blues
TTITLE7=Slow Walk
TTITLE8=I Don't Care No More
TTITLE9=Mr Downchild
TTITLE10=Honey In Your Hips
TTITLE11=Pretty Girl
TTITLE12=Smokestack Lightning
TTITLE13=Mister, You're A Better Man Than I
EXTD=ID3G:   0
EXTT0=
EXTT1=
EXTT2=
EXTT3=
EXTT4=
EXTT5=
EXTT6=
EXTT7=
EXTT8=
EXTT9=
EXTT10=
EXTT11=
EXTT12=
EXTT13=
PLAYORDER=
